<svg xmlns="http://www.w3.org/2000/svg" xmlns:svg="http://www.w3.org/2000/svg" id="svg8" width="1000" height="400" version="1.1" viewBox="0 0 264.583 105.833"><title id="title4950">Pillow horizontal text anchors</title><defs id="defs2"><marker id="Arrow1Mstart" orient="auto" refX="0" refY="0" style="overflow:visible"><path id="path4674" d="M 0.0,0.0 L 5.0,-5.0 L -12.5,0.0 L 5.0,5.0 L 0.0,0.0 z" transform="scale(0.4) translate(10,0)" style="fill-rule:evenodd;stroke:red;stroke-width:1pt;stroke-opacity:1;fill:red;fill-opacity:1"/></marker><marker style="overflow:visible" id="marker5227" orient="auto" refX="0" refY="0"><path style="fill:#fe0000;fill-opacity:1;fill-rule:evenodd;stroke:#fe0000;stroke-width:1.00000003pt;stroke-opacity:1" id="path5225-6" d="M 0,0 5,-5 -12.5,0 5,5 Z" transform="matrix(0.8,0,0,0.8,10,0)"/></marker><marker style="overflow:visible" id="marker5539" orient="auto" refX="0" refY="0"><path style="fill:#fe0000;fill-opacity:1;fill-rule:evenodd;stroke:#fe0000;stroke-width:1.00000003pt;stroke-opacity:1" id="path5537" d="M 0,0 5,-5 -12.5,0 5,5 Z" transform="matrix(-0.8,0,0,-0.8,-10,0)"/></marker><marker id="Arrow1Lstart" orient="auto" refX="0" refY="0" style="overflow:visible"><path id="path2021" d="M 0,0 5,-5 -12.5,0 5,5 Z" transform="matrix(0.8,0,0,0.8,10,0)" style="fill:#fe0000;fill-opacity:1;fill-rule:evenodd;stroke:#fe0000;stroke-width:1.00000003pt;stroke-opacity:1"/></marker><marker id="Arrow1Lend" orient="auto" refX="0" refY="0" style="overflow:visible"><path id="path2024" d="M 0,0 5,-5 -12.5,0 5,5 Z" transform="matrix(-0.8,0,0,-0.8,-10,0)" style="fill:#fe0000;fill-opacity:1;fill-rule:evenodd;stroke:#fe0000;stroke-width:1.00000003pt;stroke-opacity:1"/></marker><marker style="overflow:visible" id="marker5227-5" orient="auto" refX="0" refY="0"><path style="fill:#00f;fill-opacity:1;fill-rule:evenodd;stroke:#00f;stroke-width:1.00000003pt;stroke-opacity:1" id="path5225-9" d="M 0,0 5,-5 -12.5,0 5,5 Z" transform="matrix(0.8,0,0,0.8,10,0)"/></marker><marker style="overflow:visible" id="marker5539-3" orient="auto" refX="0" refY="0"><path style="fill:#00f;fill-opacity:1;fill-rule:evenodd;stroke:#00f;stroke-width:1.00000003pt;stroke-opacity:1" id="path5537-2" d="M 0,0 5,-5 -12.5,0 5,5 Z" transform="matrix(-0.8,0,0,-0.8,-10,0)"/></marker><marker id="Arrow1Lstart-5" orient="auto" refX="0" refY="0" style="overflow:visible"><path id="path2021-9" d="M 0,0 5,-5 -12.5,0 5,5 Z" transform="matrix(0.8,0,0,0.8,10,0)" style="fill:#00f;fill-opacity:1;fill-rule:evenodd;stroke:#00f;stroke-width:1.00000003pt;stroke-opacity:1"/></marker><marker id="Arrow1Lend-3" orient="auto" refX="0" refY="0" style="overflow:visible"><path id="path2024-8" d="M 0,0 5,-5 -12.5,0 5,5 Z" transform="matrix(-0.8,0,0,-0.8,-10,0)" style="fill:#00f;fill-opacity:1;fill-rule:evenodd;stroke:#00f;stroke-width:1.00000003pt;stroke-opacity:1"/></marker></defs><metadata id="metadata5"/><g id="layer5"><path style="fill:none;stroke:#00f;stroke-width:.52916673;stroke-linecap:butt;stroke-linejoin:miter;stroke-miterlimit:4;stroke-dasharray:1.05833346,.52916673;stroke-dashoffset:0;stroke-opacity:1" id="path4558" d="m 5.6516665,67.64343 247.1324835,0"/><path style="display:inline;fill:none;stroke:#fe0000;stroke-width:.26458332;stroke-linecap:butt;stroke-linejoin:miter;stroke-miterlimit:4;stroke-dasharray:.26458333,.26458333;stroke-dashoffset:0;stroke-opacity:1;marker-start:url(#Arrow1Lstart);marker-end:url(#Arrow1Lend)" id="path2019-6" d="m 147.60064,43.158629 -68.307632,0"/><path id="path2715-4" d="m 79.293008,43.158629 -68.307665,0" style="display:inline;fill:none;stroke:#fe0000;stroke-width:.26458332;stroke-linecap:butt;stroke-linejoin:miter;stroke-miterlimit:4;stroke-dasharray:.26458333,.26458333;stroke-dashoffset:0;stroke-opacity:1;marker-start:url(#marker5227);marker-end:url(#marker5539)"/><path style="display:inline;fill:none;stroke:#00f;stroke-width:.26458332;stroke-linecap:butt;stroke-linejoin:miter;stroke-miterlimit:4;stroke-dasharray:.26458333,.26458333;stroke-dashoffset:0;stroke-opacity:1;marker-start:url(#Arrow1Lstart-5);marker-end:url(#Arrow1Lend-3)" id="path2019-6-3" d="M 155.2836,34.962797 V 67.64343"/><path id="path2715-4-6" d="m 155.2836,67.64343 v 32.70925" style="display:inline;fill:none;stroke:#00f;stroke-width:.26458332;stroke-linecap:butt;stroke-linejoin:miter;stroke-miterlimit:4;stroke-dasharray:.26458333,.26458333;stroke-dashoffset:0;stroke-opacity:1;marker-start:url(#marker5227-5);marker-end:url(#marker5539-3)"/></g><g id="layer2" style="display:inline"><path style="fill:none;stroke:#00f;stroke-width:.84738779;stroke-linecap:butt;stroke-linejoin:miter;stroke-miterlimit:4;stroke-dasharray:none;stroke-opacity:1" id="path3719" d="M -16.124542,87.690473 H 277.4074 m 0,12.662207 H -43.016837 m 0,-65.389883 H 284.00362"/></g><g id="layer1" transform="translate(0,-191.16665)"><g style="font-style:normal;font-variant:normal;font-weight:400;font-stretch:normal;font-size:50.79999924px;line-height:1.25;font-family:'Noto Sans';-inkscape-font-specification:'Noto Sans';letter-spacing:0;word-spacing:0;fill:#000;fill-opacity:1;stroke:none;stroke-width:.26458332" id="text3717" aria-label="Quick"><path style="stroke-width:.26458332" id="path5225" d="m 46.970343,260.29276 q 0,6.6548 -2.6924,11.3792 -2.6416,4.6736 -7.874,6.4008 l 8.6868,9.0424 h -6.5532 l -7.0104,-8.1788 q -0.3048,0 -0.6604,0 -0.3048,0.0508 -0.6096,0.0508 -5.6388,0 -9.398,-2.3368 -3.7084,-2.3368 -5.5372,-6.5532 -1.8288,-4.2164 -1.8288,-9.8552 0,-5.5372 1.8288,-9.7028 1.8288,-4.2164 5.5372,-6.5532 3.7592,-2.3368 9.4488,-2.3368 5.4356,0 9.144,2.3368 3.7084,2.286 5.588,6.5024 1.9304,4.1656 1.9304,9.8044 z m -28.6512,0 q 0,6.858 2.8956,10.8204 2.8956,3.9116 9.0424,3.9116 6.1468,0 8.9916,-3.9116 2.8956,-3.9624 2.8956,-10.8204 0,-6.858 -2.8448,-10.7188 -2.8448,-3.9116 -8.9916,-3.9116 -6.1976,0 -9.0932,3.9116 -2.8956,3.8608 -2.8956,10.7188 z"/><path style="stroke-width:.26458332" id="path5227" d="m 77.158243,251.25036 v 27.2288 h -3.6576 l -0.6604,-3.6068 h -0.2032 q -1.3208,2.1336 -3.6576,3.1496 -2.3368,0.9652 -4.9784,0.9652 -4.9276,0 -7.4168,-2.3368 -2.4892,-2.3876 -2.4892,-7.5692 v -17.8308 h 4.5212 v 17.526 q 0,6.5024 6.0452,6.5024 4.5212,0 6.2484,-2.54 1.778,-2.54 1.778,-7.3152 v -14.1732 z"/><path style="stroke-width:.26458332" id="path5229" d="m 88.03897,241.03956 q 1.016,0 1.778,0.7112 0.8128,0.6604 0.8128,2.1336 0,1.4732 -0.8128,2.1844 -0.762,0.6604 -1.778,0.6604 -1.1176,0 -1.8796,-0.6604 -0.762,-0.7112 -0.762,-2.1844 0,-1.4732 0.762,-2.1336 0.762,-0.7112 1.8796,-0.7112 z m 2.1844,10.2108 v 27.2288 h -4.4704 v -27.2288 z"/><path style="stroke-width:.26458332" id="path5231" d="m 109.77184,278.98716 q -3.6576,0 -6.4516,-1.4732 -2.794,-1.4732 -4.4196,-4.572 -1.5748,-3.0988 -1.5748,-7.9248 0,-5.0292 1.6256,-8.1788 1.6764,-3.1496 4.572,-4.6228 2.8956,-1.4732 6.5532,-1.4732 2.032,0 3.9624,0.4572 1.9812,0.4064 3.2004,1.016 l -1.3716,3.7084 q -1.2192,-0.4572 -2.8448,-0.8636 -1.6256,-0.4064 -3.048,-0.4064 -8.0264,0 -8.0264,10.3124 0,4.9276 1.9304,7.5692 1.9812,2.5908 5.842,2.5908 2.1844,0 3.9116,-0.4572 1.7272,-0.4572 3.1496,-1.1176 v 3.9624 q -1.3716,0.7112 -3.048,1.0668 -1.6256,0.4064 -3.9624,0.4064 z"/><path style="stroke-width:.26458332" id="path5233" d="m 127.67725,239.87116 v 20.1676 q 0,0.8128 -0.1016,2.1336 -0.0508,1.3208 -0.1016,2.286 h 0.2032 q 0.3048,-0.4064 0.9144,-1.1684 0.6096,-0.762 1.2192,-1.524 0.6604,-0.8128 1.1176,-1.3208 l 8.6868,-9.1948 h 5.2324 l -11.0236,11.6332 11.7856,15.5956 h -5.3848 l -9.4488,-12.7 -3.0988,2.6924 v 10.0076 h -4.4196 v -38.608 z"/></g></g><g id="layer3"><rect style="fill:none;fill-opacity:1;stroke:red;stroke-width:.75980842;stroke-miterlimit:4;stroke-dasharray:none;stroke-opacity:1" id="rect4526" width="136.615" height="47.588" x="10.985" y="48.608"/></g><g id="layer4" style="display:inline"><g id="g4553"><path id="path4529" d="M 10.985343,48.608231 H 1.4268605" style="fill:none;stroke:#f90000;stroke-width:.79375;stroke-linecap:butt;stroke-linejoin:miter;stroke-miterlimit:4;stroke-dasharray:2.38125,2.38125;stroke-dashoffset:3.175;stroke-opacity:1"/><path id="path4531" d="M 10.985343,96.195905 H 1.4470838" style="fill:none;stroke:#f90000;stroke-width:.79375;stroke-linecap:butt;stroke-linejoin:miter;stroke-miterlimit:4;stroke-dasharray:2.38125,2.38125;stroke-dashoffset:3.175;stroke-opacity:1"/><path id="path4533" d="m 147.60064,48.608231 h 65.42674" style="fill:none;stroke:#f90000;stroke-width:.79375;stroke-linecap:butt;stroke-linejoin:miter;stroke-miterlimit:4;stroke-dasharray:2.38125,2.38125;stroke-dashoffset:3.175;stroke-opacity:1"/><path id="path4535" d="m 147.60064,96.195905 h 65.1586" style="fill:none;stroke:#f90000;stroke-width:.79375;stroke-linecap:butt;stroke-linejoin:miter;stroke-miterlimit:4;stroke-dasharray:2.38125,2.38125;stroke-dashoffset:3.175;stroke-opacity:1"/><path id="path4537" d="M 147.60064,48.608231 V 5.8586308" style="fill:none;stroke:#f90000;stroke-width:.79375;stroke-linecap:butt;stroke-linejoin:miter;stroke-miterlimit:4;stroke-dasharray:2.38125,2.38125;stroke-dashoffset:3.175;stroke-opacity:1"/><path id="path4539" d="M 10.985343,48.608231 V 7.5595236" style="fill:none;stroke:#f90000;stroke-width:.79375;stroke-linecap:butt;stroke-linejoin:miter;stroke-miterlimit:4;stroke-dasharray:2.38125,2.38125;stroke-dashoffset:3.175;stroke-opacity:1"/><path id="path4541" d="m 10.985343,96.195903 v 7.558557" style="fill:none;stroke:#f90000;stroke-width:.79375;stroke-linecap:butt;stroke-linejoin:miter;stroke-miterlimit:4;stroke-dasharray:2.38125,2.38125;stroke-dashoffset:3.175;stroke-opacity:1"/><path id="path4543" d="m 147.60064,96.195903 v 7.747547" style="fill:none;stroke:#f90000;stroke-width:.79375;stroke-linecap:butt;stroke-linejoin:miter;stroke-miterlimit:4;stroke-dasharray:2.38125,2.38125;stroke-dashoffset:3.175;stroke-opacity:1"/><path id="path4537-3" d="m 79.293008,102.35752 0,-95.5086054" style="display:inline;fill:none;stroke:#f90000;stroke-width:.529;stroke-linecap:butt;stroke-linejoin:miter;stroke-miterlimit:4;stroke-dasharray:1.058,.529;stroke-dashoffset:2.1159995;stroke-opacity:1"/></g></g><g id="layer7" style="display:inline"><text style="font-style:normal;font-variant:normal;font-weight:400;font-stretch:normal;font-size:4.93888889px;line-height:1.25;font-family:sans-serif;-inkscape-font-specification:'sans-serif, Normal';letter-spacing:0;word-spacing:0;fill:#000;fill-opacity:1;stroke:none;stroke-width:.26458332;text-anchor:start;text-align:start;writing-mode:lr;font-variant-ligatures:normal;font-variant-caps:normal;font-variant-numeric:normal;font-feature-settings:normal" id="text4564" x="224.631" y="97.631" xml:space="preserve"><tspan id="tspan4562" x="224.631" y="97.631" style="stroke-width:.26458332;-inkscape-font-specification:'sans-serif, Normal';font-family:sans-serif;font-weight:400;font-style:normal;font-stretch:normal;font-variant:normal;font-size:4.93888889px;text-anchor:start;text-align:start;writing-mode:lr;font-variant-ligatures:normal;font-variant-caps:normal;font-variant-numeric:normal;font-feature-settings:normal">(d) descender</tspan></text><text style="font-style:normal;font-variant:normal;font-weight:400;font-stretch:normal;font-size:4.93888889px;line-height:1.25;font-family:sans-serif;-inkscape-font-specification:'sans-serif, Normal';letter-spacing:0;word-spacing:0;fill:#000;fill-opacity:1;stroke:none;stroke-width:.26458332;text-anchor:start;text-align:start;writing-mode:lr;font-variant-ligatures:normal;font-variant-caps:normal;font-variant-numeric:normal;font-feature-settings:normal" id="text4564-3" x="224.401" y="84.301" xml:space="preserve"><tspan id="tspan4562-0" x="224.401" y="84.301" style="stroke-width:.26458332;-inkscape-font-specification:'sans-serif, Normal';font-family:sans-serif;font-weight:400;font-style:normal;font-stretch:normal;font-variant:normal;font-size:4.93888889px;text-anchor:start;text-align:start;writing-mode:lr;font-variant-ligatures:normal;font-variant-caps:normal;font-variant-numeric:normal;font-feature-settings:normal">(s) baseline</tspan></text><text style="font-style:normal;font-variant:normal;font-weight:400;font-stretch:normal;font-size:4.93888889px;line-height:1.25;font-family:sans-serif;-inkscape-font-specification:'sans-serif, Normal';letter-spacing:0;word-spacing:0;fill:#000;fill-opacity:1;stroke:none;stroke-width:.26458332;text-anchor:start;text-align:start;writing-mode:lr;font-variant-ligatures:normal;font-variant-caps:normal;font-variant-numeric:normal;font-feature-settings:normal" id="text4564-6" x="223.872" y="31.385" xml:space="preserve"><tspan id="tspan4562-3" x="223.872" y="31.385" style="stroke-width:.26458332;-inkscape-font-specification:'sans-serif, Normal';font-family:sans-serif;font-weight:400;font-style:normal;font-stretch:normal;font-variant:normal;font-size:4.93888889px;text-anchor:start;text-align:start;writing-mode:lr;font-variant-ligatures:normal;font-variant-caps:normal;font-variant-numeric:normal;font-feature-settings:normal">(a) ascender</tspan></text><text style="font-style:normal;font-variant:normal;font-weight:400;font-stretch:normal;font-size:4.93888889px;line-height:1.25;font-family:sans-serif;-inkscape-font-specification:'sans-serif, Normal';letter-spacing:0;word-spacing:0;fill:#000;fill-opacity:1;stroke:none;stroke-width:.26458332;text-anchor:start;text-align:start;writing-mode:lr;font-variant-ligatures:normal;font-variant-caps:normal;font-variant-numeric:normal;font-feature-settings:normal" id="text4564-9" x="223.343" y="63.399" xml:space="preserve"><tspan style="stroke-width:.26458332;-inkscape-font-specification:'sans-serif, Normal';font-family:sans-serif;font-weight:400;font-style:normal;font-stretch:normal;font-variant:normal;font-size:4.93888889px;text-anchor:start;text-align:start;writing-mode:lr;font-variant-ligatures:normal;font-variant-caps:normal;font-variant-numeric:normal;font-feature-settings:normal" id="tspan4600" x="223.343" y="63.399">(m) middle</tspan></text><text style="font-style:normal;font-variant:normal;font-weight:400;font-stretch:normal;font-size:4.93888889px;line-height:1.25;font-family:sans-serif;-inkscape-font-specification:'sans-serif, Normal';letter-spacing:0;word-spacing:0;fill:#000;fill-opacity:1;stroke:none;stroke-width:.26458332;text-anchor:start;text-align:start;writing-mode:lr;font-variant-ligatures:normal;font-variant-caps:normal;font-variant-numeric:normal;font-feature-settings:normal" id="text4564-38" x="187.624" y="45.672" xml:space="preserve"><tspan id="tspan4562-07" x="187.624" y="45.672" style="stroke-width:.26458332;-inkscape-font-specification:'sans-serif, Normal';font-family:sans-serif;font-weight:400;font-style:normal;font-stretch:normal;font-variant:normal;font-size:4.93888889px;text-anchor:start;text-align:start;writing-mode:lr;font-variant-ligatures:normal;font-variant-caps:normal;font-variant-numeric:normal;font-feature-settings:normal">(t) top</tspan></text><text style="font-style:normal;font-variant:normal;font-weight:400;font-stretch:normal;font-size:4.93888889px;line-height:1.25;font-family:sans-serif;-inkscape-font-specification:'sans-serif, Normal';letter-spacing:0;word-spacing:0;fill:#000;fill-opacity:1;stroke:none;stroke-width:.26458332;text-anchor:start;text-align:start;writing-mode:lr;font-variant-ligatures:normal;font-variant-caps:normal;font-variant-numeric:normal;font-feature-settings:normal" id="text4614" x="183.885" y="93.662" xml:space="preserve"><tspan id="tspan4612" x="183.885" y="93.662" style="stroke-width:.26458332;-inkscape-font-specification:'sans-serif, Normal';font-family:sans-serif;font-weight:400;font-style:normal;font-stretch:normal;font-variant:normal;font-size:4.93888889px;text-anchor:start;text-align:start;writing-mode:lr;font-variant-ligatures:normal;font-variant-caps:normal;font-variant-numeric:normal;font-feature-settings:normal">(b) bottom</tspan></text><text style="font-style:normal;font-variant:normal;font-weight:400;font-stretch:normal;font-size:4.93888889px;line-height:1.25;font-family:sans-serif;-inkscape-font-specification:'sans-serif, Normal';letter-spacing:0;word-spacing:0;fill:#000;fill-opacity:1;stroke:none;stroke-width:.26458332;text-anchor:start;text-align:start;writing-mode:lr;font-variant-ligatures:normal;font-variant-caps:normal;font-variant-numeric:normal;font-feature-settings:normal" id="text4564-7" x="13.793" y="11.012" xml:space="preserve"><tspan id="tspan4562-6" x="13.793" y="11.012" style="stroke-width:.26458332;-inkscape-font-specification:'sans-serif, Normal';font-family:sans-serif;font-weight:400;font-style:normal;font-stretch:normal;font-variant:normal;font-size:4.93888889px;text-anchor:start;text-align:start;writing-mode:lr;font-variant-ligatures:normal;font-variant-caps:normal;font-variant-numeric:normal;font-feature-settings:normal">(l) left</tspan></text><text style="font-style:normal;font-variant:normal;font-weight:400;font-stretch:normal;font-size:4.93888889px;line-height:1.25;font-family:sans-serif;-inkscape-font-specification:'sans-serif, Normal';letter-spacing:0;word-spacing:0;fill:#000;fill-opacity:1;stroke:none;stroke-width:.26458332;text-anchor:start;text-align:start;writing-mode:lr;font-variant-ligatures:normal;font-variant-caps:normal;font-variant-numeric:normal;font-feature-settings:normal" id="text4626" x="151.606" y="11.113" xml:space="preserve"><tspan id="tspan4624" x="151.606" y="11.113" style="stroke-width:.26458332;-inkscape-font-specification:'sans-serif, Normal';font-family:sans-serif;font-weight:400;font-style:normal;font-stretch:normal;font-variant:normal;font-size:4.93888889px;text-anchor:start;text-align:start;writing-mode:lr;font-variant-ligatures:normal;font-variant-caps:normal;font-variant-numeric:normal;font-feature-settings:normal">(r) right</tspan></text><text style="font-style:normal;font-variant:normal;font-weight:400;font-stretch:normal;font-size:4.93888889px;line-height:1.25;font-family:sans-serif;-inkscape-font-specification:'sans-serif, Normal';letter-spacing:0;word-spacing:0;fill:#000;fill-opacity:1;stroke:none;stroke-width:.26458332;text-anchor:start;text-align:start;writing-mode:lr;font-variant-ligatures:normal;font-variant-caps:normal;font-variant-numeric:normal;font-feature-settings:normal" id="text4630" x="81.158" y="11.738" xml:space="preserve"><tspan id="tspan4628" x="81.158" y="11.738" style="stroke-width:.26458332;-inkscape-font-specification:'sans-serif, Normal';font-family:sans-serif;font-weight:400;font-style:normal;font-stretch:normal;font-variant:normal;font-size:4.93888889px;text-anchor:start;text-align:start;writing-mode:lr;font-variant-ligatures:normal;font-variant-caps:normal;font-variant-numeric:normal;font-feature-settings:normal">(m) middle</tspan></text></g><g id="layer8"><text style="font-style:normal;font-variant:normal;font-weight:400;font-stretch:normal;font-size:9.87777805px;line-height:1.25;font-family:sans-serif;-inkscape-font-specification:'sans-serif, Normal';font-variant-ligatures:normal;font-variant-caps:normal;font-variant-numeric:normal;font-feature-settings:normal;text-align:start;letter-spacing:0;word-spacing:0;writing-mode:lr-tb;text-anchor:start;fill:#000;fill-opacity:1;stroke:none;stroke-width:.26458332" id="text4635" x="183.356" y="16.404" xml:space="preserve"><tspan id="tspan4633" x="183.356" y="16.404" style="font-style:normal;font-variant:normal;font-weight:400;font-stretch:normal;font-size:9.87777805px;font-family:sans-serif;-inkscape-font-specification:'sans-serif, Normal';font-variant-ligatures:normal;font-variant-caps:normal;font-variant-numeric:normal;font-feature-settings:normal;text-align:start;writing-mode:lr-tb;text-anchor:start;stroke-width:.26458332">Horizontal text</tspan></text></g></svg>